# xmcd
#
# Track frame offsets:
# 150
# 11247
# 24667
# 39259
# 51251
# 64489
# 79185
# 90730
# 101329
# 113364
# 128464
# 141271
# 156013
# 169241
# 181091
# 194664
# 205048
# 215841
# 229794
# 242769
# 252290
# 266615
# 279794
# 292994
# 303816
#
# Disc length: 4235 seconds
#
# Revision: 0
# Processed by: cddbd v1.5.2PL0 Copyright (c) Steve Scherf et al.
# Submitted via: Axialis_AX_CDPlayer 2.6
#
DISCID=59108919
DTITLE=Various Artist - Doo-Wop Dreams Legends of Doo Wop (Disc-3)
DYEAR=1900
DGENRE=
TTITLE0=Chords - Sh-Boom
TTITLE1=Penguins - Earth Angel
TTITLE2=Flamingos - Golden Teardrops
TTITLE3=Platters - Only You (And You Alone)
TTITLE4=Dells - Oh, What a Night
TTITLE5=Teen Queens - Eddie My Love
TTITLE6=Mello-Kings - Tonight, Tonight
TTITLE7=Frankie Lymon and the Teenagers - Why Do Fools Fall in Love
TTITLE8=Schoolboys - Please Say You Want Me
TTITLE9=Velvets - I
TTITLE10=Moonglows - Secret Love
TTITLE11=Harptones - My Memories of You
TTITLE12=Cadillacs - Gloria
TTITLE13=El Dorados - At My Front Door
TTITLE14=Orioles - It's Too Soon to Know
TTITLE15=Heartbeats - Crazy for You
TTITLE16=Cadillacs - Speedo
TTITLE17=Diablos - The Wind
TTITLE18=Channels - The Gleam in Your Eye
TTITLE19=Lee Andrews and the Hearts - Bells of St Mary's
TTITLE20=Cardinals - Shouldn't I Know
TTITLE21=Turbans - When You Dance
TTITLE22=Flamingos - I'll Be Home
TTITLE23=Lee Andrews and the Hearts - Teardrops
TTITLE24=Rivileers - A Thousand Stars
EXTD=
EXTT0=
EXTT1=
EXTT2=
EXTT3=
EXTT4=
EXTT5=
EXTT6=
EXTT7=
EXTT8=
EXTT9=
EXTT10=
EXTT11=
EXTT12=
EXTT13=
EXTT14=
EXTT15=
EXTT16=
EXTT17=
EXTT18=
EXTT19=
EXTT20=
EXTT21=
EXTT22=
EXTT23=
EXTT24=
PLAYORDER=
